<?xml version="1.0" encoding="utf-8"?>
<!-- Generator: Adobe Illustrator 25.2.1, SVG Export Plug-In . SVG Version: 6.00 Build 0)  -->
<svg version="1.1" id="Layer_1" xmlns="http://www.w3.org/2000/svg" xmlns:xlink="http://www.w3.org/1999/xlink" x="0px" y="0px"
	 viewBox="0 0 147.1 125.5" style="enable-background:new 0 0 147.1 125.5;" xml:space="preserve">
<style type="text/css">
	.st0{fill:#E5E5E5;}
	.st1{fill:#4F73B8;}
	.st2{fill:#2557A7;}
	.st3{fill:#7CC242;}
</style>
<circle class="st0" cx="73.7" cy="62.8" r="62.8"/>
<path id="sacxas_1_" class="st1" d="M58.9,123.8c-10-1.6-18.7-6.9-26.5-13.2c-7.8-6.2-13.5-14-17.2-23.3c-3.7-9.3-5.5-17.6-4.1-27.7
	L0,60.1l15.7-21.4l19.4,20.9l-10.8-0.3c-1.2,8-0.4,15.7,2.5,23c2.8,7.3,7.2,13.5,13.2,18.4c6,4.9,12.9,8,20.8,9.3"/>
<path id="sacxas_2_" class="st2" d="M89.5,2.4c10,1.8,18.6,7.3,26.2,13.7c7.7,6.4,13.2,14.3,16.7,23.6c3.5,9.4,5.1,17.7,3.5,27.8
	l11.1-0.3L131,88.4l-19-21.3l10.8,0.5c1.4-8,0.7-15.6-2-23c-2.7-7.4-7-13.6-12.8-18.6c-5.9-5-12.7-8.3-20.6-9.7"/>
<g id="Layer_2">
	<circle class="st3" cx="73" cy="62.8" r="25.3"/>
</g>
</svg>
