<?xml version="1.0" encoding="utf-8"?>
<!-- Generator: Adobe Illustrator 25.2.1, SVG Export Plug-In . SVG Version: 6.00 Build 0)  -->
<svg version="1.1" id="Layer_1" xmlns="http://www.w3.org/2000/svg" xmlns:xlink="http://www.w3.org/1999/xlink" x="0px" y="0px"
	 viewBox="0 0 160.1 160.2" style="enable-background:new 0 0 160.1 160.2;" xml:space="preserve">
<style type="text/css">
	.st0{fill:#E5E5E5;}
	.st1{fill:#4F73B8;}
	.st2{fill:#7CC242;}
</style>
<circle class="st0" cx="80.5" cy="81.4" r="62.8"/>
<path id="sacxas" class="st1" d="M160.1,63.4H99.6l24.6-25c-8.1-8.1-17.5-13.6-28.2-16.5c-10.7-2.9-21.4-3.1-31.9-0.4
	c-10.6,2.6-19.9,7.9-28,15.9c-8.1,7.9-13.5,17.2-16.3,27.8c-2.8,10.6-2.8,21.2,0,31.7c2.8,10.6,8.2,19.8,16.3,27.8
	c8.1,7.9,17.4,13.3,28,16.1c10.6,2.8,21.2,2.8,31.9,0c10.7-2.8,20.1-8.1,28.2-15.9c12-12.2,17.9-26.9,17.9-43.8h17.9
	c0,9.5-2,19.1-5.8,28.8c-4.2,10.9-10,19.9-17.5,27.1c-10.3,10.3-22.3,17.2-36.1,20.7c-13.8,3.5-27.6,3.5-41.3,0
	c-13.8-3.5-25.7-10.3-35.9-20.5c-10.2-10.2-17-22.1-20.7-35.7c-3.6-13.6-3.7-27.3-0.2-40.9C6,46.9,12.9,35.1,23.2,25
	C33.5,15,45.5,8.2,59.1,4.6C72.8,1,86.4,1,100,4.6C113.7,8.2,125.6,15,135.9,25l24.2-25V63.4z"/>
<g id="Layer_2">
	<polygon class="st2" points="82.6,46.5 82.6,84.1 113.5,102.8 107.2,113.7 69.2,90.7 69.2,46.5 	"/>
</g>
</svg>
